<mxfile host="app.diagrams.net" modified="2020-12-28T17:21:54.084Z" agent="5.0 (Windows NT 10.0; Win64; x64) AppleWebKit/537.36 (KHTML, like Gecko) Chrome/87.0.4280.88 Safari/537.36" etag="VBgQV8IPX6GyJC_VBm5I" version="13.6.6" type="github">
  <diagram id="g2266GKcHhYfRuPVs197" name="Page-1">
    <mxGraphModel dx="1108" dy="492" grid="1" gridSize="10" guides="1" tooltips="1" connect="1" arrows="1" fold="1" page="1" pageScale="1" pageWidth="1200" pageHeight="1920" math="0" shadow="0">
      <root>
        <mxCell id="0" />
        <mxCell id="1" parent="0" />
        <mxCell id="bjTATPBaipgevdcI6qdA-1" value="" style="shape=cylinder2;whiteSpace=wrap;html=1;boundedLbl=1;backgroundOutline=1;size=15;" vertex="1" parent="1">
          <mxGeometry x="415" y="440" width="130" height="70" as="geometry" />
        </mxCell>
        <mxCell id="bjTATPBaipgevdcI6qdA-4" value="&lt;font style=&quot;font-size: 20px&quot;&gt;Warship&lt;/font&gt;" style="rounded=1;whiteSpace=wrap;html=1;" vertex="1" parent="1">
          <mxGeometry x="420" y="330" width="120" height="60" as="geometry" />
        </mxCell>
        <mxCell id="bjTATPBaipgevdcI6qdA-6" value="&lt;font style=&quot;font-size: 15px&quot;&gt;Get History Data&lt;/font&gt;" style="text;html=1;strokeColor=none;fillColor=none;align=center;verticalAlign=middle;whiteSpace=wrap;rounded=0;" vertex="1" parent="1">
          <mxGeometry x="320" y="410" width="140" height="30" as="geometry" />
        </mxCell>
        <mxCell id="bjTATPBaipgevdcI6qdA-7" value="&lt;font style=&quot;font-size: 20px&quot;&gt;Yarn Queue&lt;/font&gt;" style="rounded=1;whiteSpace=wrap;html=1;" vertex="1" parent="1">
          <mxGeometry x="90" y="335" width="180" height="50" as="geometry" />
        </mxCell>
        <mxCell id="bjTATPBaipgevdcI6qdA-8" value="" style="endArrow=classic;html=1;exitX=1;exitY=0.5;exitDx=0;exitDy=0;entryX=0;entryY=0.5;entryDx=0;entryDy=0;" edge="1" parent="1" source="bjTATPBaipgevdcI6qdA-7" target="bjTATPBaipgevdcI6qdA-4">
          <mxGeometry width="50" height="50" relative="1" as="geometry">
            <mxPoint x="690" y="320" as="sourcePoint" />
            <mxPoint x="740" y="270" as="targetPoint" />
          </mxGeometry>
        </mxCell>
        <mxCell id="bjTATPBaipgevdcI6qdA-9" value="&lt;div&gt;&lt;span style=&quot;font-size: 15px&quot;&gt;Determine queue resources&lt;/span&gt;&lt;/div&gt;&lt;div&gt;&lt;br&gt;&lt;/div&gt;" style="text;html=1;strokeColor=none;fillColor=none;align=center;verticalAlign=middle;whiteSpace=wrap;rounded=0;" vertex="1" parent="1">
          <mxGeometry x="230" y="300" width="220" height="30" as="geometry" />
        </mxCell>
        <mxCell id="bjTATPBaipgevdcI6qdA-10" value="&lt;font style=&quot;font-size: 20px&quot;&gt;Saber&lt;/font&gt;" style="rounded=1;whiteSpace=wrap;html=1;" vertex="1" parent="1">
          <mxGeometry x="710" y="330" width="120" height="60" as="geometry" />
        </mxCell>
        <mxCell id="bjTATPBaipgevdcI6qdA-11" value="" style="edgeStyle=elbowEdgeStyle;elbow=vertical;endArrow=classic;html=1;exitX=0.5;exitY=0;exitDx=0;exitDy=0;entryX=0.75;entryY=0;entryDx=0;entryDy=0;" edge="1" parent="1" source="bjTATPBaipgevdcI6qdA-10" target="bjTATPBaipgevdcI6qdA-4">
          <mxGeometry width="50" height="50" relative="1" as="geometry">
            <mxPoint x="710" y="490" as="sourcePoint" />
            <mxPoint x="500" y="260" as="targetPoint" />
            <Array as="points">
              <mxPoint x="610" y="290" />
            </Array>
          </mxGeometry>
        </mxCell>
        <mxCell id="bjTATPBaipgevdcI6qdA-13" value="" style="endArrow=classic;html=1;exitX=1;exitY=0.5;exitDx=0;exitDy=0;entryX=0;entryY=0.5;entryDx=0;entryDy=0;" edge="1" parent="1" source="bjTATPBaipgevdcI6qdA-4" target="bjTATPBaipgevdcI6qdA-10">
          <mxGeometry width="50" height="50" relative="1" as="geometry">
            <mxPoint x="670" y="470" as="sourcePoint" />
            <mxPoint x="720" y="420" as="targetPoint" />
          </mxGeometry>
        </mxCell>
        <mxCell id="bjTATPBaipgevdcI6qdA-19" value="&lt;font style=&quot;font-size: 15px&quot;&gt;Get Need&amp;nbsp;Scaling Job&amp;nbsp;&lt;/font&gt;" style="text;html=1;strokeColor=none;fillColor=none;align=center;verticalAlign=middle;whiteSpace=wrap;rounded=0;" vertex="1" parent="1">
          <mxGeometry x="540" y="250" width="180" height="30" as="geometry" />
        </mxCell>
        <mxCell id="bjTATPBaipgevdcI6qdA-20" value="&lt;font style=&quot;font-size: 15px&quot;&gt;Restart Job&lt;/font&gt;" style="text;html=1;strokeColor=none;fillColor=none;align=center;verticalAlign=middle;whiteSpace=wrap;rounded=0;" vertex="1" parent="1">
          <mxGeometry x="567.5" y="370" width="125" height="30" as="geometry" />
        </mxCell>
        <mxCell id="bjTATPBaipgevdcI6qdA-21" value="&lt;font style=&quot;font-size: 15px&quot;&gt;2&lt;/font&gt;" style="text;html=1;strokeColor=#666666;fillColor=#f5f5f5;align=center;verticalAlign=middle;whiteSpace=wrap;rounded=0;fontColor=#333333;" vertex="1" parent="1">
          <mxGeometry x="310" y="415" width="20" height="20" as="geometry" />
        </mxCell>
        <mxCell id="bjTATPBaipgevdcI6qdA-22" value="&lt;font style=&quot;font-size: 15px&quot;&gt;1&lt;/font&gt;" style="text;html=1;strokeColor=#666666;fillColor=#f5f5f5;align=center;verticalAlign=middle;whiteSpace=wrap;rounded=0;fontColor=#333333;" vertex="1" parent="1">
          <mxGeometry x="525" y="255" width="20" height="20" as="geometry" />
        </mxCell>
        <mxCell id="bjTATPBaipgevdcI6qdA-23" value="&lt;font style=&quot;font-size: 15px&quot;&gt;3&lt;/font&gt;" style="text;html=1;strokeColor=#666666;fillColor=#f5f5f5;align=center;verticalAlign=middle;whiteSpace=wrap;rounded=0;fontColor=#333333;" vertex="1" parent="1">
          <mxGeometry x="220" y="298" width="20" height="20" as="geometry" />
        </mxCell>
        <mxCell id="bjTATPBaipgevdcI6qdA-24" value="&lt;font style=&quot;font-size: 15px&quot;&gt;4&lt;/font&gt;" style="text;html=1;strokeColor=#666666;fillColor=#f5f5f5;align=center;verticalAlign=middle;whiteSpace=wrap;rounded=0;fontColor=#333333;" vertex="1" parent="1">
          <mxGeometry x="564" y="375" width="20" height="20" as="geometry" />
        </mxCell>
        <mxCell id="bjTATPBaipgevdcI6qdA-25" value="" style="endArrow=classic;html=1;exitX=0.503;exitY=-0.012;exitDx=0;exitDy=0;exitPerimeter=0;entryX=0.5;entryY=1;entryDx=0;entryDy=0;" edge="1" parent="1" source="bjTATPBaipgevdcI6qdA-1" target="bjTATPBaipgevdcI6qdA-4">
          <mxGeometry width="50" height="50" relative="1" as="geometry">
            <mxPoint x="600" y="520" as="sourcePoint" />
            <mxPoint x="650" y="470" as="targetPoint" />
          </mxGeometry>
        </mxCell>
        <mxCell id="bjTATPBaipgevdcI6qdA-26" value="&lt;font style=&quot;font-size: 16px&quot;&gt;Clickhouse&lt;/font&gt;" style="text;html=1;strokeColor=none;fillColor=none;align=center;verticalAlign=middle;whiteSpace=wrap;rounded=0;" vertex="1" parent="1">
          <mxGeometry x="425" y="470" width="110" height="30" as="geometry" />
        </mxCell>
        <mxCell id="bjTATPBaipgevdcI6qdA-27" value="&lt;font style=&quot;font-size: 18px&quot;&gt;WeChat&lt;/font&gt;" style="ellipse;shape=cloud;whiteSpace=wrap;html=1;" vertex="1" parent="1">
          <mxGeometry x="390" y="150" width="120" height="60" as="geometry" />
        </mxCell>
        <mxCell id="bjTATPBaipgevdcI6qdA-28" value="" style="endArrow=classic;html=1;exitX=1;exitY=1;exitDx=0;exitDy=0;" edge="1" parent="1" source="bjTATPBaipgevdcI6qdA-9" target="bjTATPBaipgevdcI6qdA-27">
          <mxGeometry width="50" height="50" relative="1" as="geometry">
            <mxPoint x="460" y="310" as="sourcePoint" />
            <mxPoint x="510" y="260" as="targetPoint" />
          </mxGeometry>
        </mxCell>
        <mxCell id="bjTATPBaipgevdcI6qdA-29" value="&lt;div&gt;&lt;span style=&quot;font-size: 15px&quot;&gt;Alarm &amp;amp; Result&lt;/span&gt;&lt;/div&gt;" style="text;html=1;strokeColor=none;fillColor=none;align=center;verticalAlign=middle;whiteSpace=wrap;rounded=0;" vertex="1" parent="1">
          <mxGeometry x="320" y="225" width="125" height="30" as="geometry" />
        </mxCell>
        <mxCell id="bjTATPBaipgevdcI6qdA-30" value="&lt;span style=&quot;font-size: 15px&quot;&gt;5&lt;/span&gt;" style="text;html=1;strokeColor=#666666;fillColor=#f5f5f5;align=center;verticalAlign=middle;whiteSpace=wrap;rounded=0;fontColor=#333333;" vertex="1" parent="1">
          <mxGeometry x="306" y="229" width="20" height="20" as="geometry" />
        </mxCell>
      </root>
    </mxGraphModel>
  </diagram>
</mxfile>
